<svg version="1.0" xmlns="http://www.w3.org/2000/svg" width="512px" height="512px" viewBox="0 0 512 512" preserveAspectRatio="xMidYMid meet">
 <g fill="#ff204e">
  <path d="M240 511 c-33.5 -2.2 -65.9 -10.9 -96.5 -26 -51.5 -25.3 -91 -64.8 -116.6 -116.5 -17.6 -35.7 -26.1 -72.2 -26.1 -112.5 0 -40.3 8.5 -76.8 26.1 -112.5 25.6 -51.7 64.9 -91 116.6 -116.6 35.7 -17.6 72.2 -26.1 112.5 -26.1 40.3 0 76.8 8.5 112.5 26.1 51.7 25.6 91 64.9 116.6 116.6 17.6 35.7 26.1 72.2 26.1 112.5 0 40.3 -8.5 76.8 -26.1 112.5 -25.6 51.7 -64.9 91 -116.6 116.6 -39.5 19.5 -85.3 28.7 -128.5 25.9z m-93.1 -107.7 c25.6 -8.2 57.2 -37.9 94.2 -88.5 2.8 -3.9 4 -4.7 6.7 -4.8 1.7 0 3.2 0.2 3.2 0.5 0 1.2 10.5 35.1 13.2 42.5 11.8 32.7 28.9 50.5 48.3 50.4 27.4 -0.1 64.9 -26.9 78 -55.7 5.1 -11.1 7.1 -25.2 4.1 -29.2 -1.3 -1.7 -2.7 -0.6 -19.7 16.6 -25.4 25.6 -30.2 28.9 -41.7 28.9 -8.7 0 -12.9 -3.4 -18.9 -15.6 -6.2 -12.3 -10.1 -26.9 -17.2 -64.6 -5.2 -27.1 -5.9 -33.2 -4.1 -34.3 1.7 -1 31.5 -38.6 46.1 -58 24.2 -32.2 40.7 -58.6 42.5 -68.1 0.6 -3.5 0.4 -4 -2.7 -6.6 -3.7 -3.1 -15.1 -6.9 -26.1 -8.7 -5.5 -0.9 -7.4 -0.9 -10.1 0.3 -3.7 1.5 -5.5 4.1 -41.8 61.8 -16.7 26.7 -17.5 27.8 -20.5 27.8 -3.1 0 -3.3 -0.2 -6.9 -10.2 -15.4 -41.9 -36.5 -66.9 -65 -77.1 -9.1 -3.2 -23 -5.1 -31.2 -4.3 -26.1 2.7 -45.8 24.8 -44.1 49.5 0.7 8.9 4.1 16.1 11 23 12.2 12.2 39.1 19.8 60.3 17.1 4.4 -0.6 10.9 -1.3 14.5 -1.6 l6.5 -0.6 2.8 12.3 c6.2 26.7 10.7 50.2 10.7 55.2 0 5.1 -0.4 5.8 -8.6 17.3 -31 42.8 -69 84.5 -107.8 118.2 -4.5 3.9 -4.8 4.4 -3.4 5.9 2.4 2.3 10.6 4.2 15.8 3.6 2.5 -0.3 7.8 -1.7 11.9 -3z"/>
  <path d="M204.1 177.4 c-12.1 -4.1 -21.5 -11.3 -24.8 -19.1 -0.7 -1.8 -1.3 -6.8 -1.3 -11.1 0 -6.9 0.3 -8.1 2.3 -10 2.6 -2.5 10.4 -3 15.4 -1.1 3.6 1.3 9.6 7.2 13.3 12.9 4.7 7.5 10 21.4 10 26.4 l0 4.6 -3.7 0 c-2.1 0 -7.1 -1.2 -11.2 -2.6z"/>
 </g>
 <g fill="#ffffff">
  <path d="M122.7 408.6 c-6.2 -1.7 -10.4 -5.7 -9.1 -8.4 0.5 -1.1 5.4 -6 10.9 -10.8 22.8 -20.1 55.5 -54.1 78.1 -81.4 15.7 -19 33.4 -43.7 33.4 -46.7 0 -2.5 -6.2 -32.5 -10.7 -52.1 l-2.8 -12.3 -3 0.5 c-25.3 4.4 -47 2.3 -65 -6.4 -9.6 -4.6 -17.3 -11.8 -21.2 -19.9 -5.4 -10.9 -4.2 -31.4 2.5 -43 10.9 -19.3 32.1 -27.8 59.4 -24.1 36.7 5 63.1 31.2 81.3 80.8 3.3 8.9 3.9 10 5 8.5 0.7 -1 11.7 -18.4 24.5 -38.8 31.5 -50 30.2 -48.2 35.1 -49.7 5.1 -1.5 17.4 0.1 29.6 3.8 9.3 2.8 15.3 7.4 15.3 11.6 0 10.4 -15.3 36.2 -43.6 73.9 -13.9 18.5 -34.4 44.5 -42.6 54.1 l-4.9 5.6 5.1 26.9 c5.5 29.1 7.7 38.5 11.7 50.8 5.2 16.2 12.7 27.6 19 29.1 4.2 1.1 11.3 -1.3 17.3 -5.9 3 -2.2 13.9 -12.6 24.2 -22.9 19.8 -19.9 21.9 -21.3 25.2 -16.6 2.1 3 2.1 16.4 0.1 24.3 -4.4 16.7 -15.9 32.7 -33.9 47.1 -16.3 13.1 -33.7 19.8 -51.1 19.9 -8.8 0 -10.7 -0.3 -15.8 -2.7 -11.5 -5.4 -19.7 -14.3 -27.9 -30.4 -2.5 -4.9 -5.9 -12.7 -7.6 -17.4 -2.8 -7.6 -13.2 -41.3 -13.2 -42.6 0 -0.3 -7 8.5 -15.6 19.6 -23.5 30.1 -36 43.4 -54.4 57.7 -19.1 14.8 -41.1 21.9 -55.3 17.9z m93.3 -233.2 c0 -2.4 -6.9 -18.4 -10 -23.4 -7.6 -11.9 -17.2 -16.9 -22.7 -11.8 -2.7 2.5 -3.2 9.8 -1 15.1 3.3 7.8 12.7 15 24.8 19.1 8.8 3 8.9 3 8.9 1z"/>
 </g>
</svg>
